<svg width="512" height="512" viewBox="0 0 512 512" fill="none" xmlns="http://www.w3.org/2000/svg">
<circle cx="255.5" cy="255.5" r="187.5" fill="#D1D5DB"/>
<path d="M188.586 181.693C187.965 182.271 186.216 183.86 184.323 185.537C183.846 185.97 183.167 186.592 182.806 186.91C182.444 187.242 181.115 188.441 179.843 189.583C178.571 190.739 177.242 191.939 176.881 192.271C176.519 192.589 175.291 193.702 174.135 194.728C172.979 195.754 172.011 196.635 171.967 196.679C171.924 196.722 171.245 197.329 170.45 198.051C169.655 198.759 168.716 199.612 168.355 199.944C167.993 200.262 166.693 201.433 165.464 202.546C164.236 203.644 163.195 204.583 163.152 204.627C163.109 204.67 161.75 205.898 160.117 207.372C158.484 208.832 157.126 210.075 157.083 210.118C157.039 210.161 156.1 210.999 154.987 211.997C153.875 212.994 152.935 213.832 152.892 213.875C152.849 213.919 151.88 214.8 150.724 215.826C149.568 216.852 148.6 217.734 148.557 217.777C148.513 217.82 146.216 219.901 143.426 222.401C140.652 224.901 138.34 226.982 138.296 227.026C138.253 227.069 137.314 227.907 136.201 228.904C135.088 229.901 134.149 230.74 134.106 230.783C134.004 230.884 132.646 232.127 131.071 233.529C130.319 234.208 129.308 235.118 128.831 235.552C127.906 236.404 126.866 237.329 125.941 238.139C125.348 238.644 122.675 241.058 122.545 241.188C122.501 241.231 121.562 242.069 120.449 243.066C119.337 244.063 118.397 244.902 118.354 244.945C118.311 244.988 116.952 246.231 115.319 247.691C113.686 249.165 112.328 250.393 112.285 250.436C112.241 250.48 111.591 251.058 110.839 251.737C110.088 252.402 108.889 253.471 108.166 254.121C107.458 254.772 106.085 256.014 105.131 256.867C104.177 257.734 102.79 258.991 102.039 259.671C101.287 260.35 100.42 261.145 100.088 261.419C99.7699 261.694 99.4086 262.026 99.2786 262.142C99.163 262.257 98.1514 263.168 97.0387 264.165C95.9259 265.148 94.9866 266 94.9433 266.043C94.8566 266.13 93.7149 267.156 91.9085 268.789C91.1571 269.468 90.449 270.119 90.3189 270.234C90.1889 270.35 89.8276 270.668 89.5241 270.942C89.2062 271.202 88.6571 271.694 88.2958 272.026C87.9345 272.359 86.9952 273.211 86.2004 273.919C85.4056 274.627 84.7264 275.249 84.683 275.292C84.6397 275.335 82.342 277.416 79.5529 279.916C76.7783 282.416 74.4662 284.497 74.4228 284.541C74.3794 284.584 73.9893 284.931 73.5557 285.321C73.1222 285.711 72.2696 286.492 71.6771 287.07C71.0846 287.633 69.9141 288.703 69.0759 289.454C68.2378 290.191 66.9083 291.405 66.1135 292.128C65.3187 292.865 62.9487 295.003 60.8388 296.896C58.729 298.804 56.4313 300.87 55.7087 301.521C55.0006 302.171 52.7174 304.223 50.6509 306.073C48.5844 307.937 46.8647 309.498 46.8213 309.541C46.778 309.584 45.8098 310.466 44.6537 311.492C43.4976 312.518 42.5294 313.4 42.486 313.443C42.4427 313.486 41.5034 314.324 40.3906 315.321C39.2779 316.319 38.3386 317.157 38.2952 317.2C38.1941 317.301 36.8357 318.544 35.2605 319.946C34.5091 320.625 33.4975 321.535 33.0206 321.983C32.5437 322.417 31.2431 323.587 30.1304 324.57C29.0177 325.567 28.0783 326.405 28.035 326.449C27.9916 326.492 27.3124 327.099 26.5176 327.822C25.7228 328.53 24.7835 329.397 24.4222 329.715C24.061 330.047 23.5841 330.481 23.3384 330.683L22.9049 331.059L63.7435 331.073H104.597L105.319 330.379C105.709 330.004 106.388 329.411 106.808 329.05C107.227 328.689 107.776 328.197 108.036 327.966C108.282 327.72 108.686 327.374 108.932 327.171C109.178 326.969 109.857 326.348 110.449 325.798C111.779 324.57 113.209 323.284 113.86 322.735C114.12 322.518 114.785 321.911 115.319 321.391C115.854 320.871 116.548 320.249 116.837 320.018C117.126 319.772 117.646 319.31 117.993 318.978C118.339 318.631 118.657 318.356 118.701 318.356C118.744 318.356 119.062 318.082 119.423 317.735C120.594 316.622 121.764 315.538 122.212 315.177C122.66 314.816 124.221 313.443 125.088 312.648C125.348 312.402 126.027 311.795 126.605 311.275C127.169 310.755 127.921 310.061 128.282 309.714C128.629 309.382 128.947 309.108 128.99 309.108C129.062 309.108 129.582 308.631 131.071 307.229C131.62 306.709 132.299 306.087 132.588 305.856C132.892 305.61 133.441 305.134 133.817 304.772C134.192 304.411 134.857 303.804 135.305 303.428C135.739 303.038 136.418 302.417 136.822 302.055C137.458 301.434 138.065 300.899 139.785 299.425C140.103 299.151 140.811 298.5 141.346 297.98C142.689 296.694 143.499 295.957 143.499 296.044C143.499 296.073 143.759 295.842 144.077 295.524C144.395 295.206 144.698 294.946 144.742 294.946C144.799 294.946 145.088 294.685 145.392 294.367C145.71 294.05 145.955 293.818 145.955 293.847C145.955 293.876 146.36 293.5 146.866 293.009C147.357 292.532 148.224 291.737 148.759 291.261C150.377 289.844 151.042 289.266 151.476 288.833C151.707 288.616 151.909 288.443 151.938 288.443C151.967 288.443 152.271 288.168 152.617 287.821C152.979 287.489 153.586 286.925 153.976 286.578C155.219 285.495 156.49 284.353 157.285 283.601C157.704 283.197 158.398 282.59 158.817 282.229C159.221 281.867 159.756 281.405 159.973 281.174C160.204 280.957 160.406 280.784 160.45 280.784C160.479 280.784 160.797 280.509 161.158 280.162C162.271 279.107 164.207 277.359 164.886 276.781C165.233 276.477 165.811 275.957 166.143 275.61C166.49 275.278 166.808 275.003 166.852 275.003C166.895 275.003 167.242 274.7 167.632 274.309C168.008 273.934 168.672 273.341 169.077 272.98C169.496 272.619 170.045 272.127 170.305 271.896C170.566 271.65 171.216 271.072 171.75 270.596C172.285 270.119 173.066 269.396 173.485 269.006C174.525 268.023 175.71 266.997 175.883 266.939C175.956 266.911 176.014 266.795 176.014 266.679C176.014 266.564 176.086 266.477 176.173 266.477C176.259 266.477 176.606 266.202 176.953 265.856C177.516 265.321 177.95 264.902 180.045 263.009C180.58 262.517 182.242 261.043 182.863 260.509C183.239 260.176 185.392 258.211 186.129 257.517C186.491 257.171 186.722 256.795 186.852 256.289C186.953 255.884 187.083 255.494 187.141 255.422C187.199 255.335 187.358 254.887 187.488 254.41C187.618 253.934 187.777 253.442 187.82 253.327C187.878 253.211 187.936 253.038 187.936 252.965C187.95 252.879 188.008 252.72 188.051 252.604C188.095 252.488 188.254 251.997 188.384 251.52C188.514 251.043 188.673 250.581 188.73 250.509C188.788 250.422 188.962 249.945 189.092 249.425C189.236 248.905 189.41 248.413 189.467 248.341C189.525 248.254 189.713 247.633 189.887 246.968C190.06 246.289 190.262 245.668 190.32 245.595C190.378 245.509 190.537 245.032 190.681 244.511C190.811 243.991 190.985 243.5 191.043 243.428C191.115 243.341 191.274 242.864 191.404 242.344C191.534 241.824 191.707 241.318 191.794 241.217C191.881 241.13 191.895 241.043 191.837 241.043C191.78 241.043 191.794 240.956 191.881 240.855C191.953 240.769 192.141 240.191 192.285 239.598C192.43 239.006 192.603 238.485 192.647 238.442C192.69 238.399 192.849 237.922 192.994 237.387C193.138 236.852 193.311 236.376 193.369 236.332C193.441 236.303 193.456 236.173 193.398 236.058C193.355 235.942 193.384 235.841 193.456 235.841C193.528 235.841 193.702 235.349 193.861 234.757C194.005 234.165 194.164 233.673 194.222 233.673C194.28 233.673 194.439 233.167 194.598 232.546C194.742 231.939 194.93 231.39 195.002 231.332C195.089 231.274 195.103 231.188 195.046 231.13C194.988 231.072 195.002 230.956 195.074 230.87C195.147 230.783 195.32 230.292 195.45 229.771C195.595 229.251 195.754 228.76 195.811 228.688C195.869 228.601 196.028 228.153 196.158 227.676C196.288 227.199 196.447 226.708 196.491 226.592C196.534 226.477 196.592 226.346 196.592 226.303C196.606 226.26 196.65 226.159 196.707 226.086C196.765 226 196.91 225.479 197.04 224.93C197.155 224.381 197.314 223.875 197.387 223.789C197.459 223.702 197.632 223.211 197.762 222.69C197.907 222.17 198.066 221.679 198.124 221.607C198.181 221.52 198.34 221.072 198.47 220.595C198.601 220.118 198.759 219.627 198.803 219.511C198.846 219.396 198.904 219.265 198.918 219.222C198.933 219.179 198.976 219.049 199.02 218.933C199.063 218.818 199.222 218.297 199.352 217.777C199.482 217.257 199.655 216.765 199.713 216.693C199.785 216.606 199.944 216.13 200.075 215.609C200.205 215.089 200.378 214.583 200.465 214.482C200.551 214.395 200.566 214.309 200.508 214.309C200.45 214.309 200.465 214.222 200.537 214.121C200.624 214.034 200.768 213.615 200.869 213.225C200.97 212.82 201.129 212.3 201.231 212.069C201.332 211.823 201.534 211.216 201.664 210.696C201.794 210.176 201.982 209.684 202.054 209.583C202.127 209.482 202.155 209.338 202.098 209.251C202.054 209.179 202.069 209.106 202.127 209.106C202.199 209.106 202.372 208.615 202.531 208.023C202.676 207.43 202.835 206.939 202.892 206.939C202.95 206.939 203.109 206.433 203.268 205.812C203.413 205.205 203.572 204.67 203.615 204.627C203.673 204.583 203.861 204.005 204.049 203.326C204.236 202.647 204.439 202.025 204.497 201.953C204.554 201.866 204.713 201.39 204.858 200.869C205.002 200.349 205.161 199.901 205.205 199.858C205.262 199.814 205.421 199.323 205.551 198.774C205.696 198.21 205.855 197.661 205.898 197.546C205.942 197.43 205.985 197.3 205.985 197.257C205.999 197.213 206.043 197.112 206.101 197.04C206.144 196.953 206.303 196.476 206.433 195.956C206.563 195.436 206.722 194.944 206.794 194.872C206.852 194.785 207.011 194.337 207.141 193.861C207.271 193.384 207.43 192.892 207.473 192.777C207.517 192.661 207.575 192.531 207.575 192.488C207.589 192.444 207.632 192.343 207.69 192.271C207.748 192.184 207.893 191.664 208.023 191.115C208.138 190.566 208.312 190.06 208.369 189.973C208.442 189.887 208.615 189.395 208.745 188.875C208.875 188.355 209.034 187.863 209.106 187.791C209.164 187.704 209.367 187.126 209.54 186.491C209.713 185.855 209.901 185.262 209.959 185.19C210.017 185.103 210.147 184.684 210.248 184.251C210.349 183.817 210.523 183.254 210.638 183.022C210.739 182.777 210.927 182.242 211.043 181.823L211.26 181.071H200.248H189.236L188.586 181.693Z" fill="#3B82F6"/>
<path d="M215.104 184.063C213.586 188.73 213.138 190.089 211.708 194.511C210.971 196.78 210.104 199.468 209.757 200.508C209.424 201.534 208.543 204.236 207.806 206.505C207.083 208.774 206.332 211.072 206.144 211.635C205.956 212.184 205.407 213.919 204.916 215.465C203.225 220.768 201.707 225.508 200.653 228.76C200.06 230.552 198.832 234.352 197.907 237.214C196.982 240.075 196.1 242.777 195.956 243.211C195.811 243.644 194.959 246.246 194.077 248.991C193.196 251.737 191.953 255.538 191.332 257.445C190.71 259.353 189.843 262.012 189.41 263.37C188.976 264.714 187.863 268.139 186.953 270.957C186.028 273.775 184.554 278.327 183.673 281.073C182.791 283.818 181.938 286.419 181.794 286.853C181.649 287.286 180.768 289.989 179.843 292.85C178.918 295.711 178.051 298.414 177.892 298.847C177.748 299.281 177.04 301.492 176.303 303.761C175.58 306.029 174.857 308.24 174.713 308.674C174.568 309.108 173.716 311.709 172.834 314.454C171.953 317.2 171.071 319.888 170.883 320.452C170.696 321.001 169.944 323.313 169.222 325.582C168.499 327.851 167.805 329.946 167.69 330.249C167.574 330.538 167.487 330.856 167.487 330.929C167.487 331.03 196.043 331.073 249.497 331.073C306.232 331.073 331.507 331.03 331.507 330.929C331.507 330.784 330.033 326.174 329.339 324.137C329.194 323.703 328.718 322.229 328.284 320.885C326.666 315.871 323.544 306.29 321.781 300.87C321.362 299.555 320.697 297.489 320.307 296.275L319.599 294.078H278.283C240.61 294.078 236.968 294.064 237.055 293.847C237.098 293.717 237.185 293.37 237.228 293.052C237.286 292.749 237.373 292.489 237.43 292.489C237.474 292.489 237.647 291.998 237.792 291.405C237.951 290.813 238.124 290.321 238.196 290.321C238.269 290.321 238.297 290.22 238.254 290.104C238.196 289.989 238.211 289.859 238.283 289.83C238.341 289.787 238.514 289.31 238.659 288.775C238.803 288.24 238.962 287.72 239.02 287.648C239.078 287.561 239.251 287.084 239.381 286.564C239.511 286.044 239.714 285.422 239.815 285.191C239.916 284.945 240.118 284.338 240.248 283.818C240.378 283.298 240.537 282.807 240.61 282.734C240.667 282.648 240.841 282.171 240.971 281.651C241.115 281.13 241.289 280.639 241.347 280.567C241.404 280.48 241.563 280.003 241.693 279.483C241.824 278.963 241.968 278.442 242.011 278.327C242.055 278.211 242.113 278.081 242.127 278.038C242.141 277.994 242.199 277.864 242.243 277.749C242.286 277.633 242.445 277.142 242.575 276.665C242.705 276.188 242.864 275.726 242.922 275.653C242.98 275.567 243.139 275.119 243.269 274.642C243.399 274.165 243.558 273.674 243.601 273.558C243.644 273.442 243.702 273.312 243.717 273.269C243.731 273.226 243.774 273.096 243.818 272.98C243.861 272.864 244.02 272.344 244.15 271.824C244.28 271.304 244.439 270.812 244.511 270.74C244.569 270.653 244.728 270.176 244.873 269.656C245.003 269.136 245.191 268.645 245.263 268.544C245.335 268.442 245.364 268.298 245.306 268.211C245.263 268.139 245.277 268.067 245.35 268.067C245.422 268.067 245.552 267.72 245.653 267.301C245.74 266.896 245.899 266.39 246 266.188C246.101 265.986 246.303 265.321 246.462 264.7C246.607 264.093 246.795 263.587 246.867 263.587C246.939 263.587 246.968 263.486 246.925 263.37C246.867 263.254 246.896 263.124 246.954 263.081C247.026 263.038 247.156 262.691 247.257 262.286C247.358 261.882 247.488 261.535 247.561 261.491C247.618 261.448 247.647 261.318 247.589 261.202C247.546 261.087 247.575 260.986 247.647 260.986C247.72 260.986 247.893 260.48 248.052 259.858C248.196 259.251 248.37 258.673 248.428 258.601C248.471 258.514 248.63 258.067 248.76 257.59C248.89 257.113 249.02 256.65 249.049 256.578C249.078 256.491 249.107 256.361 249.136 256.289C249.15 256.202 249.208 256.072 249.28 256C249.338 255.913 249.511 255.436 249.642 254.916C249.786 254.396 249.945 253.905 250.003 253.832C250.075 253.746 250.234 253.269 250.364 252.749C250.494 252.228 250.653 251.708 250.696 251.592C250.74 251.477 250.783 251.347 250.798 251.303C250.812 251.26 250.87 251.13 250.913 251.014C250.957 250.899 251.116 250.407 251.246 249.931C251.376 249.454 251.535 248.991 251.592 248.919C251.65 248.832 251.824 248.355 251.954 247.835C252.098 247.315 252.272 246.824 252.329 246.751C252.387 246.665 252.575 246.058 252.749 245.379C252.922 244.699 253.11 244.078 253.168 244.006C253.225 243.919 253.399 243.442 253.543 242.922C253.673 242.402 253.847 241.91 253.905 241.838C253.977 241.751 254.136 241.274 254.266 240.754C254.396 240.234 254.584 239.728 254.67 239.613C254.772 239.497 254.829 239.367 254.829 239.324C254.815 239.28 254.829 239.165 254.844 239.092C254.873 239.006 255.003 238.485 255.147 237.936C255.277 237.373 255.436 236.896 255.494 236.852C255.538 236.809 255.697 236.361 255.841 235.841C255.986 235.321 256.173 234.829 256.246 234.728C256.318 234.627 256.347 234.482 256.289 234.396C256.246 234.323 256.26 234.251 256.318 234.251C256.39 234.251 256.564 233.774 256.708 233.196C256.853 232.633 257.026 232.127 257.069 232.084C257.127 232.04 257.286 231.506 257.431 230.884C257.59 230.277 257.777 229.771 257.85 229.771C257.922 229.771 257.951 229.67 257.908 229.555C257.85 229.439 257.864 229.309 257.936 229.28C257.994 229.237 258.168 228.76 258.312 228.225C258.457 227.69 258.616 227.17 258.673 227.098C258.731 227.011 258.89 226.534 259.035 226.014C259.165 225.494 259.324 224.974 259.396 224.844C259.454 224.728 259.656 224.107 259.83 223.471C260.003 222.849 260.205 222.257 260.263 222.185C260.335 222.098 260.48 221.635 260.61 221.159C260.74 220.667 260.942 220.089 261.058 219.858C261.173 219.627 261.275 219.367 261.275 219.294C261.275 219.208 261.347 218.904 261.434 218.601L261.578 218.066H299.859C328.616 218.066 338.154 218.023 338.154 217.907C338.154 217.748 339.151 214.641 341.984 205.927C342.576 204.135 343.804 200.335 344.729 197.473C345.654 194.612 346.536 191.91 346.68 191.476C346.825 191.043 347.547 188.832 348.27 186.563C348.992 184.294 349.686 182.199 349.802 181.895C349.917 181.606 350.004 181.288 350.004 181.216C350.004 181.115 326.666 181.071 283.038 181.071H216.072L215.104 184.063Z" fill="#3B82F6"/>
<path d="M354.599 183.123C354.224 184.265 353.559 186.317 353.125 187.676C352.677 189.048 351.955 191.259 351.536 192.589C351.102 193.933 350.192 196.736 349.498 198.846C348.226 202.762 347.388 205.335 346.03 209.54C345.611 210.855 344.802 213.312 344.252 215.002L343.241 218.066L410.236 218.037L477.231 217.994L478.055 215.465C478.503 214.078 479.5 210.985 480.28 208.601C481.046 206.216 481.797 203.904 481.942 203.471C482.101 203.037 482.939 200.436 483.821 197.69C484.702 194.944 485.54 192.343 485.699 191.91C485.844 191.476 486.595 189.164 487.361 186.78C488.127 184.395 488.849 182.199 488.965 181.895C489.081 181.606 489.167 181.288 489.167 181.216C489.167 181.115 465.829 181.071 422.216 181.071H355.264L354.599 183.123Z" fill="#3B82F6"/>
<path d="M336.507 238.832C336.29 239.54 335.625 241.563 335.047 243.355C334.469 245.147 333.356 248.558 332.59 250.942C330.062 258.775 329.036 261.91 328.761 262.72C328.616 263.153 327.894 265.364 327.171 267.633C326.434 269.902 325.654 272.33 325.423 273.023C325.192 273.731 325.004 274.353 325.004 274.44C325.004 274.512 350.018 274.555 391.926 274.541L458.849 274.497L459.037 273.992C459.153 273.717 459.861 271.535 460.627 269.15C461.393 266.766 462.144 264.454 462.288 264.02C462.447 263.587 463.286 260.986 464.167 258.24C466.06 252.387 467.419 248.225 467.794 247.113C468.372 245.393 470.815 237.763 470.815 237.676C470.815 237.618 440.684 237.575 403.863 237.575H336.911L336.507 238.832Z" fill="#3B82F6"/>
<path d="M325.004 294.209C325.004 294.339 325.64 296.304 328.616 305.423C329.238 307.33 330.336 310.741 331.073 313.009C331.81 315.278 332.908 318.689 333.53 320.596C334.151 322.504 335.177 325.64 335.799 327.562L336.926 331.073H403.805C445.598 331.073 470.67 331.015 470.67 330.943C470.67 330.856 470.482 330.235 470.251 329.527C470.02 328.833 469.239 326.405 468.502 324.137C467.78 321.868 467.057 319.657 466.913 319.223C466.754 318.79 465.887 316.087 464.962 313.226C464.037 310.365 463.156 307.662 463.011 307.229C462.78 306.535 460.338 299.006 459.167 295.336L458.762 294.078H391.883C351.492 294.078 325.004 294.136 325.004 294.209Z" fill="#3B82F6"/>
</svg>
